<svg id="Layer_1" data-name="Layer 1" xmlns="http://www.w3.org/2000/svg" viewBox="0 0 909.84 195.84"><defs><style>.cls-1{fill:#0b4798;}.cls-2{fill:#26ade0;}.cls-3{fill:#06347a;}.cls-4{fill:#fdfdfd;}</style></defs><title>bezahlbrudi</title><path class="cls-1" d="M45.23,159.35H0C5.41,134,10.69,109.24,15.94,84.5Q24.5,44.2,33,3.87C33.54,1.13,34.39,0,37.42,0c19.66.23,39.33.21,59,.37a68.28,68.28,0,0,1,14.84,1.92c15.41,3.54,24.78,15.59,24.48,31.4a30.77,30.77,0,0,0,.31,3.43,1.6,1.6,0,0,0-.94.14c-.73-.32-1.46-.93-2.19-.93-19.31-.06-38.62,0-57.93-.08-2.74,0-3.47,1.33-4,3.89-5.54,26.54-11.32,53-16.92,79.57-2.75,13.1-6,26.08-7.93,39.35A3.1,3.1,0,0,0,45.23,159.35Z"/><path class="cls-2" d="M135.1,37.26a1.6,1.6,0,0,1,.94-.14c9.79.3,19.34,1.54,27,8.43,11.78,10.54,13.87,26.71,5.73,43.08A47.65,47.65,0,0,1,148,109.73c.4.59.58,1.14.94,1.33,15.24,8.14,20.41,19.51,16.53,36.47-6.07,26.56-28.63,45.77-56.73,47.56-22.47,1.44-45,.29-67.48.61-2.88,0-3.2-.94-2.67-3.58,2.2-10.92,5.2-21.68,6.59-32.77a3.26,3.26,0,0,1,.9-.29,227.81,227.81,0,0,0,26.38-.56c26.83-2.28,48.75-20.71,55-46.82,2.5-10.46,2-20.42-5.23-29.2C119,78.56,114.4,76.61,110,73.74,124.12,65.24,133.6,54,135.1,37.26Z"/><path class="cls-1" d="M239.81,98.73c10.63,7.23,13,14.72,8.09,26.39-5.71,13.68-16.51,20.73-30.94,21.62-12.12.74-24.3.26-36.46.47-3.76.06-2.42-2.28-2.06-4q7-33.47,14.22-66.9C193.8,71,195,65.59,196,60.2c.37-1.91,1-3,3.18-2.88,12.15.35,24.3-.37,36.45.57,16.39,1.26,23.28,15.43,14.76,30.62C248,92.84,244.38,96,239.81,98.73Zm-24.35,12c-8-.1-8-.1-9.71,7.58-.47,2.11-1,4.21-1.42,6.32-.21,1-.52,2.4.84,2.36,6.53-.2,13.45,1.74,19.28-2.84a8.52,8.52,0,0,0,3.3-9.31c-1-3.43-4.25-3.86-7.31-4.09C218.79,110.58,217.12,110.68,215.46,110.68Zm4.69-33.19c-1.63.38-4.78-1.19-5.57.84-1.49,3.77-1.85,8-2.6,12-.16.88.72,1,1.35,1,4.26-.11,8.64.78,12.73-1.06a7.87,7.87,0,0,0,4.76-8.48c-.4-3.89-3.8-4-6.79-4.33C222.88,77.39,221.71,77.49,220.15,77.49Z"/><path class="cls-2" d="M647.35,98.82c10.27,6.75,12.75,14,8.56,25.11-5.63,15-17.21,22.11-32.61,23-11.63.65-23.32.17-35,.32-2.57,0-3-.72-2.48-3.19,6-27.82,11.82-55.67,17.72-83.51.34-1.61.53-3.26,3-3.2,12.15.32,24.3-.42,36.45.52,18,1.4,23.67,17.14,14.13,32.15C654.7,93.74,651.23,96.3,647.35,98.82ZM619.8,127.09c3.76.09,8.48.24,12.36-3a8.88,8.88,0,0,0,3.25-8.91c-.76-3.56-4-4.07-7-4.45a35.39,35.39,0,0,0-4-.13c-9.46,0-9.46,0-11.42,9.32C611.45,127.09,611.45,127.09,619.8,127.09Zm6.41-35.67c2.33-.18,5,.21,7.49-1.08a8,8,0,0,0,4.55-8.59c-.46-4-3.9-4-6.8-4.25-9.49-.77-9.5-.71-11.32,8.63a17.6,17.6,0,0,1-.5,2.42c-.8,2.28.17,3,2.33,2.88C623.28,91.36,624.6,91.42,626.21,91.42Z"/><path class="cls-2" d="M838.59,140.76c-8.92,7.72-18.15,9.7-28.13,8.1-12.72-2.05-20.64-11.74-21.21-25.3-.91-22,15.71-42.31,37.39-45.7,8.39-1.31,15.85.55,22.72,7.06,1.67-7.77,3.49-15,4.67-22.23.7-4.28,2.41-5.91,6.78-5.43a74.63,74.63,0,0,0,11,.05c2.55-.1,3.66.5,3,3.37q-9,41.73-17.77,83.51c-.46,2.19-1.37,3.12-3.66,3-3.32-.15-6.66-.07-10,0C839.66,147.25,835,148.26,838.59,140.76Zm-14.5-10.35c10.7,0,20.52-9.6,20.87-20.26.25-7.71-4.92-13.33-12.68-13.8-10.47-.62-20,7.16-21.95,17.84C808.62,123.81,814.27,130.47,824.09,130.41Z"/><path class="cls-1" d="M451.24,87.08c-.48-7.6,3.66-8,8.55-7.38a27.09,27.09,0,0,0,3.49,0c9.42,0,9.4,0,7.48,9-3.87,18-7.84,36.06-11.48,54.14-.71,3.53-2,4.77-5.51,4.42a52.71,52.71,0,0,0-10,0c-4.44.43-6.71-.59-3.76-7.16-7.37,6.67-14.43,9.44-22.63,9.33-16.26-.2-26.45-10.14-26.86-26.42-.55-21.85,16.47-42.15,38-45.14C437.26,76.64,445.18,78.08,451.24,87.08Zm-26.57,43.47c11.41.08,21.36-10.19,20.93-21.6a12.54,12.54,0,0,0-11.79-12.56C422.37,95.27,411,106,411.38,117.5,411.64,125.53,416.71,130.51,424.67,130.55Z"/><path class="cls-1" d="M512.09,57.35c-1.91,9.25-3.71,18-5.73,27.82,7.64-6.71,15.53-8.79,24.38-7.06,9.44,1.85,14.36,7.8,14.53,17.42a53.13,53.13,0,0,1-1.47,11.87c-2.51,12-5.23,24-7.62,36.12-.58,2.9-1.69,3.87-4.58,3.71a113,113,0,0,0-12.48,0c-3.07.16-4-.43-3.22-3.81,2.43-10.36,4.48-20.81,6.66-31.22.28-1.3.49-2.62.71-3.93.69-4.13.71-8.37-3.37-10.64-4.27-2.39-8.72-1.49-12.69,1.33-3.61,2.57-5.26,6.32-6.14,10.51-2.34,11.06-4.77,22.11-7,33.2-.63,3.22-1.52,4.94-5.35,4.61-5.1-.44-10.26-.11-15.8-.11,3.92-18.53,7.73-36.57,11.55-54.61,2.2-10.42,4.51-20.81,6.56-31.25.58-2.92,1.56-4.24,4.82-4C501.16,57.58,506.46,57.35,512.09,57.35Z"/><path class="cls-1" d="M324,126c-7.65,14.71-25.15,24.52-40.62,23.17a27.19,27.19,0,0,1-25.31-26.8c-.78-25.93,26.11-49.19,51-44.1,16.76,3.43,27,24.24,19.58,39.43-1.13,2.31-2.86,1.87-4.6,1.87-14,0-28,0-42,0-5,0-5.76,1.21-3.77,5.9,2.68,6.3,13.2,9.82,19.44,4.9C306.09,123.8,315,127,324,126Zm-42.77-19.93c8.52,0,16.67,0,24.82,0,1.57,0,3.78.9,4.6-.68,1-1.85-.4-3.83-1.45-5.53a10.83,10.83,0,0,0-5.77-4.53C294.57,92.19,283,98.22,281.22,106.07Z"/><path class="cls-2" d="M752.79,142c-6.76,6.59-14.92,8.55-24,6.8-10.37-2-17.05-10.87-15.23-21.21,2.66-15.07,6.16-30,9.18-45,.46-2.28,1.5-3,3.69-3a119.86,119.86,0,0,0,12,0c4.08-.3,5.18.87,4.2,5-2.55,10.85-4.73,21.8-7,32.72-.94,4.6-2.16,9.49,3.26,12.33,4.77,2.5,11.95.16,15.54-4.72a23.14,23.14,0,0,0,3.68-9.19c2.25-10.59,4.75-21.12,6.69-31.76.67-3.7,2.2-4.62,5.62-4.39,4,.26,8,.12,12,0,2.51,0,3.54.44,2.89,3.42q-6.69,30.48-13,61.05c-.53,2.54-1.61,3.25-4,3.14a79.82,79.82,0,0,0-10.49,0c-3.82.32-5.66-.74-4.61-4.82a.88.88,0,0,0,.28-1.51Z"/><path class="cls-1" d="M356.35,131.94c6.85,0,13.61.17,20.35-.07,3.65-.14,5,.42,4,4.59-2.55,10.67-2.36,10.71-13.4,10.71-11.83,0-23.66-.08-35.48.06-2.91,0-3.46-.56-3-3.57a28.72,28.72,0,0,1,8.69-17.3c10.06-9.72,19.44-20.12,29.77-30.95H339.75a8.38,8.38,0,0,1-.21-1.6c2.33-14.09,2.33-14.09,16.55-14.09,10.83,0,21.66.11,32.49-.06,3.19,0,3.89.74,3.38,4-1.21,7.62-4.1,14-9.81,19.5C374,111,366.61,119.61,359,128,358,129,356.54,129.73,356.35,131.94Z"/><path class="cls-1" d="M578.82,57.35c10.08,0,10.07,0,8,9.61C581.52,92,576.14,117.1,571,142.21c-.76,3.65-1.86,5.56-6,5a52.43,52.43,0,0,0-10.48,0c-3.69.29-4.89-.42-4-4.58q8.67-39.51,16.74-79.15c.95-4.71,2.54-7.14,7.61-6.19A21.24,21.24,0,0,0,578.82,57.35Z"/><path class="cls-2" d="M694.55,85.88c5-4.56,9.54-7.29,15.14-8.19,3.13-.5,3.89.5,3.2,3.44-1.07,4.53-2.09,9.08-2.85,13.67-.42,2.53-1.75,3.09-4,3.34-10.29,1.12-13.57,4.14-15.73,14.2s-4.41,19.81-6.18,29.8c-.74,4.15-2.42,5.7-6.54,5.09a45.3,45.3,0,0,0-6.49,0c-8.46,0-8.42,0-6.7-8C668.29,120.79,672.3,102.43,676,84c.71-3.53,2.09-4.79,5.59-4.43a65,65,0,0,0,8.49,0C693.84,79.51,697.89,79,694.55,85.88Z"/><path class="cls-2" d="M880.93,147.18c-9.9,0-9.94,0-7.92-9.62,3.74-17.88,7.57-35.74,11.24-53.63.62-3,1.62-4.66,5.12-4.37a112.57,112.57,0,0,0,12.46,0c2.59-.07,3.6.6,3,3.43q-6.6,30.42-13,60.9c-.47,2.27-1.35,3.53-3.94,3.29C885.6,147,883.26,147.18,880.93,147.18Z"/><path class="cls-2" d="M896.71,72.55c-9.87,0-9.55,0-8-9.91.73-4.54,2.6-5.73,6.8-5.37a93.7,93.7,0,0,0,11.49,0c2.58-.09,3.33.85,2.41,3.24a7.89,7.89,0,0,0-.31,1.46C907.14,72.55,907.14,72.55,896.71,72.55Z"/><path class="cls-3" d="M135.1,37.26c-1.5,16.69-11,28-25.1,36.48,4.4,2.87,9,4.82,12.26,8.74,7.27,8.78,7.73,18.74,5.23,29.2-6.24,26.11-28.16,44.54-55,46.82a227.81,227.81,0,0,1-26.38.56c1.89-13.27,5.18-26.25,7.93-39.35,5.6-26.53,11.38-53,16.92-79.57.54-2.56,1.27-3.9,4-3.89,19.31,0,38.62,0,57.93.08C133.64,36.33,134.37,36.94,135.1,37.26Z"/><path class="cls-4" d="M215.46,110.68c1.66,0,3.33-.1,5,0,3.06.23,6.34.66,7.31,4.09a8.52,8.52,0,0,1-3.3,9.31c-5.83,4.58-12.75,2.64-19.28,2.84-1.36,0-1-1.41-.84-2.36.45-2.11.95-4.21,1.42-6.32C207.46,110.58,207.45,110.58,215.46,110.68Z"/><path class="cls-4" d="M220.15,77.49c1.56,0,2.73-.1,3.88,0,3,.3,6.39.44,6.79,4.33a7.87,7.87,0,0,1-4.76,8.48c-4.09,1.84-8.47,1-12.73,1.06-.63,0-1.51-.13-1.35-1,.75-4.05,1.11-8.27,2.6-12C215.37,76.3,218.52,77.87,220.15,77.49Z"/><path class="cls-4" d="M619.8,127.09c-8.35,0-8.35,0-6.83-7.22,2-9.37,2-9.37,11.42-9.32a35.39,35.39,0,0,1,4,.13c3,.38,6.27.89,7,4.45a8.88,8.88,0,0,1-3.25,8.91C628.28,127.33,623.56,127.18,619.8,127.09Z"/><path class="cls-4" d="M626.21,91.42c-1.61,0-2.93-.06-4.25,0-2.16.12-3.13-.6-2.33-2.88a17.6,17.6,0,0,0,.5-2.42c1.82-9.34,1.83-9.4,11.32-8.63,2.9.23,6.34.2,6.8,4.25a8,8,0,0,1-4.55,8.59C631.22,91.63,628.54,91.24,626.21,91.42Z"/><path class="cls-4" d="M824.09,130.41c-9.82.06-15.47-6.6-13.76-16.22,1.9-10.68,11.48-18.46,21.95-17.84,7.76.47,12.93,6.09,12.68,13.8C844.61,120.81,834.79,130.36,824.09,130.41Z"/><path class="cls-4" d="M424.67,130.55c-8,0-13-5-13.29-13.05-.38-11.53,11-22.23,22.43-21.11A12.54,12.54,0,0,1,445.6,109C446,120.36,436.08,130.63,424.67,130.55Z"/><path class="cls-4" d="M281.22,106.07c1.82-7.85,13.35-13.88,22.2-10.78a10.83,10.83,0,0,1,5.77,4.53c1.05,1.7,2.41,3.68,1.45,5.53-.82,1.58-3,.67-4.6.68C297.89,106.11,289.74,106.07,281.22,106.07Z"/><path class="cls-4" d="M752.79,142l.75-1.1a.88.88,0,0,1-.28,1.51Z"/></svg>